<svg xmlns="http://www.w3.org/2000/svg" width="48" height="48" viewBox="0 0 500 500" fill="none">
  <g filter="url(#filter0_d_light_from_below)">
    <path d="M150.5 150.5L349.5 349.5" stroke="#5C4033" stroke-width="20" stroke-linecap="round"/>
    <path d="M150.5 150.5L349.5 349.5" stroke="#3E2723" stroke-width="10" stroke-linecap="round" stroke-dasharray="20 30"/>
    
    <path d="M310 310L450 450L480 420L340 280L310 310Z" fill="#D4AF37"/>
    <path d="M310 310L350 350L460 440L480 420L340 280L310 310Z" fill="#C19A6B"/>
    
    <path d="M340 280L450 450" stroke="#996515" stroke-width="2"/>
    <path d="M325 295L435 465" stroke="#996515" stroke-width="2"/>
    <path d="M355 265L465 435" stroke="#996515" stroke-width="2"/>
    
    <path d="M310 310L440 440" stroke="#B8860B" stroke-width="2"/>
    <path d="M330 300L460 430" stroke="#B8860B" stroke-width="2"/>
    <path d="M300 330L430 460" stroke="#B8860B" stroke-width="2"/>
    
    <circle cx="325" cy="325" r="25" fill="#8B4513"/>
    <circle cx="325" cy="325" r="20" stroke="#5C4033" stroke-width="5"/>
  </g>
  
  <defs>
    <filter id="filter0_d_light_from_below" x="130.5" y="130.5" width="369.5" height="369.5" filterUnits="userSpaceOnUse" color-interpolation-filters="sRGB">
      <feFlood flood-opacity="0" result="BackgroundImageFix"/>
      <feColorMatrix in="SourceAlpha" type="matrix" values="0 0 0 0 0 0 0 0 0 0 0 0 0 0 0 0 0 0 127 0" result="hardAlpha"/>
      <feOffset dx="10" dy="10"/>
      <feGaussianBlur stdDeviation="15"/>
      <feColorMatrix type="matrix" values="0 0 0 0 1 0 0 0 0 0.9 0 0 0 0 0.5 0 0 0 0.8 0"/>
      <feBlend mode="screen" in2="BackgroundImageFix" result="effect1_dropShadow"/>
      <feBlend mode="normal" in="SourceGraphic" in2="effect1_dropShadow" result="shape"/>
    </filter>
  </defs>
</svg>